<svg width="633" height="633" viewBox="0 0 633 633" fill="none" xmlns="http://www.w3.org/2000/svg">
    <path
        d="M316.503 0C491.303 0 633.006 141.703 633.006 316.503C633.006 491.302 491.303 633.006 316.503 633.006C141.703 633.006 0.000264033 491.302 0 316.503C0 141.703 141.703 0 316.503 0ZM480.582 201.397C471.031 191.847 455.521 191.847 445.971 201.397L267.642 379.65L187.11 299.196C177.56 289.646 162.05 289.646 152.499 299.196C142.949 308.747 142.948 324.257 152.499 333.808L250.298 431.605C259.848 441.156 275.359 441.156 284.909 431.605L480.506 236.009C490.056 226.458 490.056 210.948 480.506 201.397H480.582Z"
        fill="white" />
</svg>