<svg width="237" height="290" viewBox="0 0 237 290" fill="none" xmlns="http://www.w3.org/2000/svg">
    <path
        d="M10.3095 24.07L118.5 0L226.69 24.07C229.614 24.7207 232.229 26.35 234.103 28.689C235.978 31.0279 236.999 33.9368 237 36.9355V168.582C236.999 181.602 233.787 194.421 227.65 205.9C221.513 217.379 212.64 227.164 201.819 234.386L118.5 290L35.1813 234.386C24.3619 227.165 15.4901 217.383 9.35292 205.906C3.21577 194.429 0.00311202 181.613 0 168.595V36.9355C0.000513997 33.9368 1.02223 31.0279 2.89653 28.689C4.77083 26.35 7.38567 24.7207 10.3095 24.07Z"
        fill="currentColor" />
</svg>